<?xml version="1.0" encoding="UTF-8"?>
<!DOCTYPE svg PUBLIC "-//W3C//DTD SVG 1.1//EN" "http://www.w3.org/Graphics/SVG/1.1/DTD/svg11.dtd">
<svg version="1.1" xmlns="http://www.w3.org/2000/svg" xmlns:xlink="http://www.w3.org/1999/xlink" x="0px" y="0px" width="32px" height="32px" viewBox="0 0 32 32" enable-background="new 0 0 32 32" xml:space="preserve"><path fill="#FFFFFF" d="M15.999,0.625c4.274,0,7.924,1.5,10.942,4.5s4.526,6.627,4.526,10.877c0,4.168-1.509,7.791-4.526,10.873c-3.018,3-6.668,4.5-10.942,4.5c-4.191,0-7.837-1.5-10.939-4.5c-3.018-3.082-4.528-6.705-4.528-10.873 c0-4.25,1.51-7.877,4.528-10.877C8.162,2.125,11.808,0.625,15.999,0.625z M11.85,19.188c0.88,0,1.636-0.312,2.266-0.935 c0.67-0.627,1.004-1.377,1.004-2.25c0-0.916-0.334-1.69-1.004-2.315c-0.63-0.625-1.386-0.936-2.266-0.936 c-0.839,0-1.57,0.311-2.201,0.936c-0.669,0.625-1.005,1.398-1.005,2.315c0,0.873,0.336,1.623,1.005,2.25 C10.28,18.875,11.011,19.188,11.85,19.188z M22.414,18.252c0.629-0.627,0.943-1.377,0.943-2.25c0-0.916-0.314-1.69-0.943-2.315 c-0.628-0.625-1.382-0.936-2.264-0.936c-0.881,0-1.635,0.311-2.264,0.936c-0.627,0.625-0.944,1.398-0.944,2.315 c0,0.873,0.316,1.623,0.944,2.25c0.629,0.623,1.383,0.935,2.264,0.935C21.031,19.188,21.786,18.875,22.414,18.252z"/></svg>