<?xml version="1.0" encoding="UTF-8"?>
<!DOCTYPE svg PUBLIC "-//W3C//DTD SVG 1.1//EN" "http://www.w3.org/Graphics/SVG/1.1/DTD/svg11.dtd">
<svg version="1.1" id="Capa_1" xmlns="http://www.w3.org/2000/svg" xmlns:xlink="http://www.w3.org/1999/xlink" x="0px" y="0px" width="32px" height="32px" viewBox="0 0 32 32" enable-background="new 0 0 32 32" xml:space="preserve"><g><path fill="#FFFFFF" d="M13.533,7.955c-0.612,0-1.273,0.244-1.651,0.709c-0.4,0.488-0.517,1.172-0.517,1.777 c0,1.557,0.92,4.135,2.947,4.135c0.59,0,1.227-0.336,1.604-0.709c0.543-0.535,0.59-1.219,0.59-1.637 C16.504,10.557,15.491,7.955,13.533,7.955z"/> <path fill="#FFFFFF" d="M14.686,18.258c-0.21,0-1.486,0.047-2.475,0.373c-0.52,0.186-2.027,0.742-2.027,2.392 s1.627,2.834,4.148,2.834c2.265,0,3.468-1.07,3.468-2.508c0-1.188-0.779-1.812-2.573-3.068 C15.038,18.258,14.92,18.258,14.686,18.258z"/><path fill="#FFFFFF" d="M26.94,5.125c-3.018-3-6.666-4.5-10.941-4.5c-4.191,0-7.838,1.5-10.94,4.5 c-3.017,3-4.526,6.627-4.526,10.877c0,4.168,1.509,7.791,4.526,10.873c3.102,3,6.749,4.5,10.94,4.5c4.275,0,7.924-1.5,10.941-4.5 c3.017-3.082,4.527-6.705,4.527-10.873C31.467,11.752,29.956,8.125,26.94,5.125z M13.111,24.85c-3.419,0-5.002-1.619-5.002-3.34 c0-0.836,0.423-2.02,1.816-2.834c1.46-0.883,3.44-0.998,4.505-1.068c-0.332-0.418-0.708-0.859-0.708-1.58 c0-0.394,0.118-0.627,0.234-0.906c-0.262,0.023-0.521,0.047-0.753,0.047c-2.5,0-3.916-1.836-3.916-3.647 c0-1.068,0.334-2.33,1.348-3.189c1.343-1.092,3.06-1.225,4.335-1.225l4.917,0.002l-1.528,0.934h-1.396 c0.541,0.441,1.615,1.293,1.615,3.061c0,1.719-0.99,2.533-1.98,3.299c-0.307,0.301-0.66,0.627-0.66,1.139 c0,0.51,0.354,0.789,0.612,0.998l0.851,0.65c1.035,0.859,1.979,1.65,1.979,3.254C19.379,22.627,17.167,24.85,13.111,24.85z M25.749,16.135h-2.334v2.334h-1.191v-2.334h-2.336v-1.141h2.336V12.66h1.191v2.334h2.334V16.135z"/></g></svg>