<?xml version="1.0" encoding="UTF-8"?>
<!DOCTYPE svg PUBLIC "-//W3C//DTD SVG 1.1//EN" "http://www.w3.org/Graphics/SVG/1.1/DTD/svg11.dtd">
<svg version="1.1" xmlns="http://www.w3.org/2000/svg" xmlns:xlink="http://www.w3.org/1999/xlink" x="0px" y="0px" width="32px" height="32px" viewBox="0 0 32 32" enable-background="new 0 0 32 32" xml:space="preserve"><g><path fill="#FFFFFF" d="M19.948,18.955c-0.942,1.25-2.215,1.914-3.782,1.975c-1.312,0.049-2.478-0.359-3.445-1.244 c-1.454-1.33-1.916-2.99-1.518-4.914c-0.46,0-0.908,0-1.375,0c-0.003,0.055-0.006,0.096-0.006,0.137 c-0.001,2.205-0.001,4.41,0,6.615c0,0.4,0.266,0.654,0.679,0.654c3.663,0,7.325,0,10.989,0c0.436,0,0.686-0.254,0.688-0.695 c0-2.178,0-4.357,0-6.535c0-0.057,0-0.111,0-0.172c-0.475,0-0.926,0-1.393,0C21.13,16.301,20.886,17.709,19.948,18.955z"/><path fill="#FFFFFF" d="M19.718,12.914c0.607,0.008,1.212,0.008,1.818,0c0.393-0.006,0.639-0.268,0.64-0.66 c0.002-0.59,0.002-1.182,0-1.771c-0.002-0.396-0.26-0.656-0.657-0.66c-0.294-0.002-0.586,0-0.878,0c-0.297,0-0.595-0.002-0.893,0 c-0.395,0.004-0.656,0.246-0.663,0.639c-0.009,0.605-0.009,1.211,0,1.818C19.091,12.66,19.337,12.908,19.718,12.914z"/><path fill="#FFFFFF" d="M15.989,19.088c1.702,0.01,3.091-1.371,3.096-3.082c0.008-1.703-1.376-3.092-3.084-3.094 c-1.701-0.002-3.076,1.365-3.091,3.074C12.896,17.685,14.275,19.078,15.989,19.088z"/><path fill="#FFFFFF" d="M26.94,5.125c-3.017-3-6.666-4.5-10.941-4.5c-4.192,0-7.837,1.5-10.941,4.5 C2.041,8.125,0.532,11.75,0.532,16c0,4.168,1.509,7.793,4.526,10.875c3.103,3,6.749,4.5,10.941,4.5c4.275,0,7.924-1.5,10.941-4.5 c3.018-3.082,4.528-6.707,4.528-10.875C31.468,11.75,29.958,8.125,26.94,5.125z M24.025,22.396 c-0.01,0.035-0.025,0.068-0.031,0.104c-0.138,0.746-0.7,1.328-1.436,1.486c-0.055,0.012-0.108,0.027-0.163,0.041 c-4.266,0-8.53,0-12.793,0c-0.029-0.01-0.059-0.023-0.088-0.029c-0.754-0.137-1.326-0.68-1.499-1.42 c-0.013-0.062-0.03-0.121-0.044-0.182c0-4.264,0-8.529,0-12.793C7.982,9.57,7.996,9.535,8.003,9.5 C8.169,8.721,8.64,8.231,9.407,8.023C9.472,8.006,9.537,7.99,9.603,7.973c4.263,0,8.527,0,12.793,0 c0.027,0.01,0.056,0.023,0.087,0.029c0.786,0.162,1.282,0.633,1.492,1.406c0.018,0.064,0.035,0.131,0.051,0.195 C24.025,13.867,24.025,18.133,24.025,22.396z"/></g></svg>